<svg xmlns="http://www.w3.org/2000/svg" xmlns:xlink="http://www.w3.org/1999/xlink" width="280" height="87" viewBox="0 0 280 87">
  <defs>
    <clipPath id="clip-path">
      <rect id="Rectangle_17970" data-name="Rectangle 17970" width="280" height="87" transform="translate(0.348 0.038)" fill="#fff" opacity="0.379"/>
    </clipPath>
  </defs>
  <g id="Mask_Group_281" data-name="Mask Group 281" transform="translate(-0.348 -0.038)" clip-path="url(#clip-path)">
    <g id="sawjanyam" transform="translate(3.053 14.948)">
      <g id="Group_44959" data-name="Group 44959" style="mix-blend-mode: normal;isolation: isolate">
        <path id="Path_106043" data-name="Path 106043" d="M1041.677,877.64a3.506,3.506,0,0,1-.783,2.19,7.259,7.259,0,0,1-2.125,1.8,11.2,11.2,0,0,1-3.171,1.21,16.915,16.915,0,0,1-3.856.427,16.491,16.491,0,0,1-3.827-.427,11.706,11.706,0,0,1-3.171-1.21,7.181,7.181,0,0,1-2.158-1.8,3.507,3.507,0,0,1-.785-2.19v-20.27a1.222,1.222,0,0,0-.85-1.112,5.1,5.1,0,0,0-3.923,0,1.863,1.863,0,0,0-1.046.915v24.193a1.537,1.537,0,0,1-1.044,1.406,5.824,5.824,0,0,1-2.486.49,5.655,5.655,0,0,1-2.421-.49,1.536,1.536,0,0,1-1.046-1.406V857.175a1.847,1.847,0,0,0-1.045-.915,4.641,4.641,0,0,0-1.962-.392,4.875,4.875,0,0,0-2,.392,1.228,1.228,0,0,0-.881,1.112v24a1.531,1.531,0,0,1-1.014,1.406,5.763,5.763,0,0,1-2.517.49,5.638,5.638,0,0,1-2.419-.49,1.534,1.534,0,0,1-1.046-1.406V855.278a4.723,4.723,0,0,1,2.486-3.988,11.59,11.59,0,0,1,6.472-1.635c.434,0,.97.024,1.6.065a11.51,11.51,0,0,1,1.994.327,9.947,9.947,0,0,1,2.027.752,6.153,6.153,0,0,1,1.765,1.341,6.017,6.017,0,0,1,1.8-1.341,10.942,10.942,0,0,1,3.989-1.079c.632-.041,1.186-.065,1.667-.065a11.436,11.436,0,0,1,6.441,1.635,4.733,4.733,0,0,1,2.452,3.988v20.27a1.228,1.228,0,0,0,.883,1.112,4.852,4.852,0,0,0,1.994.392,5.2,5.2,0,0,0,2.123-.392,1.227,1.227,0,0,0,.884-1.112v-24a1.532,1.532,0,0,1,1.014-1.408,5.445,5.445,0,0,1,2.386-.488,6.009,6.009,0,0,1,2.55.488,1.536,1.536,0,0,1,1.044,1.408Z" transform="translate(-996.104 -838.016)" fill="#fff"/>
        <path id="Path_106044" data-name="Path 106044" d="M1045.4,857.376q0-1.509-2.221-1.509-2.027,0-2.094,1.186v5.665a1.549,1.549,0,0,1-1.047,1.419,5.968,5.968,0,0,1-2.55.492,5.429,5.429,0,0,1-2.387-.492,1.544,1.544,0,0,1-1.011-1.419v-5.534q-.2-1.316-2.225-1.317-2.089,0-2.092,1.515v5.4a1.546,1.546,0,0,1-1.046,1.417,5.947,5.947,0,0,1-2.55.494,5.409,5.409,0,0,1-2.385-.491,1.529,1.529,0,0,1-1.015-1.406v-7.454a4.286,4.286,0,0,1,.621-2.223,5.82,5.82,0,0,1,1.7-1.8,9.41,9.41,0,0,1,2.485-1.21,9.316,9.316,0,0,1,2.907-.458,13.991,13.991,0,0,1,4.381.556,5.726,5.726,0,0,1,2.683,1.863,6.121,6.121,0,0,1,2.712-1.863,12.915,12.915,0,0,1,4.151-.556,10.8,10.8,0,0,1,3.073.425,8.223,8.223,0,0,1,2.518,1.21,6.734,6.734,0,0,1,1.735,1.8,3.983,3.983,0,0,1,.654,2.19v17.916a14.446,14.446,0,0,1-.689,4.8,6.771,6.771,0,0,1-2.158,3.107,8.9,8.9,0,0,1-3.727,1.667,26.093,26.093,0,0,1-5.46.49,26.478,26.478,0,0,1-5.523-.49,8.641,8.641,0,0,1-3.7-1.667,6.675,6.675,0,0,1-2.093-3.107,15.123,15.123,0,0,1-.654-4.8v-2.746a1.532,1.532,0,0,1,1.046-1.406,5.64,5.64,0,0,1,2.419-.49,5.767,5.767,0,0,1,2.52.49,1.531,1.531,0,0,1,1.013,1.406v3.006a3.4,3.4,0,0,0,.554,2.061,3.165,3.165,0,0,0,1.341,1.079,5.275,5.275,0,0,0,1.637.392c.563.044,1.046.065,1.436.065q.653,0,1.538-.065a5.3,5.3,0,0,0,1.668-.394,2.95,2.95,0,0,0,1.306-1.082,3.571,3.571,0,0,0,.523-2.065Z" transform="translate(-974.33 -838.016)" fill="#fff"/>
        <path id="Path_106045" data-name="Path 106045" d="M1042.843,888.613a2,2,0,0,1-1.633-1.113,4.359,4.359,0,0,1-.719-2.417,6.642,6.642,0,0,1,.492-2.518q.488-1.21,1.4-1.209a51.527,51.527,0,0,0,6.114-.425,71.872,71.872,0,0,0,7.127-1.243,74.191,74.191,0,0,0,7.161-1.994,41.7,41.7,0,0,0,6.308-2.648,18.046,18.046,0,0,0,4.479-3.2,5.292,5.292,0,0,0,1.7-3.76V857.293a1.287,1.287,0,0,0-.861-1.144,4.581,4.581,0,0,0-2.049-.425,4.172,4.172,0,0,0-1.985.458,1.972,1.972,0,0,0-1.057,1.112v15.954a1.754,1.754,0,0,1-1.1,1.373,5.436,5.436,0,0,1-2.332.458,6.237,6.237,0,0,1-2.526-.458,1.507,1.507,0,0,1-1.035-1.438v-13.8a2.488,2.488,0,0,0-.954-2.06,6.382,6.382,0,0,0-2.2-1.111,11.161,11.161,0,0,0-2.5-.427q-1.248-.063-1.9-.063t-1.84.063a9.6,9.6,0,0,0-2.33.427,5.493,5.493,0,0,0-2,1.111,2.607,2.607,0,0,0-.854,2.06l.056,1.569a3.576,3.576,0,0,1,1.887-1.046,13.94,13.94,0,0,1,2.536-.2,8.624,8.624,0,0,1,2.6.39,6.166,6.166,0,0,1,2.178,1.21,5.645,5.645,0,0,1,1.5,2.16,8.474,8.474,0,0,1,.554,3.236v4.708a4.72,4.72,0,0,1-2.508,3.988,11.942,11.942,0,0,1-6.613,1.634,12.115,12.115,0,0,1-6.646-1.634,4.713,4.713,0,0,1-2.541-3.988V859.645a10.468,10.468,0,0,1,1.011-4.839,8.06,8.06,0,0,1,2.841-3.137,12.318,12.318,0,0,1,4.439-1.667,31.183,31.183,0,0,1,5.745-.492,29.124,29.124,0,0,1,6.1.623,12.57,12.57,0,0,1,4.8,1.994,5.921,5.921,0,0,1,1.8-1.439,9.308,9.308,0,0,1,2.089-.784,12.345,12.345,0,0,1,2.058-.327c.652-.044,1.219-.067,1.7-.067a10.752,10.752,0,0,1,6.462,1.8,6.3,6.3,0,0,1,2.481,5.46v12.554a5.934,5.934,0,0,1-.81,2.942,14.527,14.527,0,0,1-2.1,2.811,4.69,4.69,0,0,1,2.913,4.315v3.791a4.484,4.484,0,0,1-2.349,3.958,11.683,11.683,0,0,1-6.262,1.471,12.2,12.2,0,0,1-6.294-1.42q-2.384-1.422-2.379-3.471v-.329q-2.945,1.188-5.977,2.147t-5.979,1.653q-2.937.69-5.55,1.057A34.234,34.234,0,0,1,1042.843,888.613Zm9.221-20.858q0-1.831-2.19-1.831a2.81,2.81,0,0,0-1.458.392,1.4,1.4,0,0,0-.667,1.308v1.633q0,1.572,2.125,1.571,2.191,0,2.19-1.571Zm23.214,12.946q0-.915-1.7-.915h-.589a.8.8,0,0,0-.458.131l-.39.262a.549.549,0,0,0-.329.458v.981q0,.784,1.766.784,1.7,0,1.7-.784Z" transform="translate(-959.872 -838.135)" fill="#fff"/>
        <path id="Path_106046" data-name="Path 106046" d="M1073.825,849.655a16.048,16.048,0,0,1,1.6.1,14.4,14.4,0,0,1,1.994.36,10.743,10.743,0,0,1,2.06.752,1.876,1.876,0,0,0,3.6,0,10.879,10.879,0,0,1,2.027-.752,13.227,13.227,0,0,1,1.994-.36c.652-.065,1.2-.1,1.635-.1a11.43,11.43,0,0,1,6.439,1.635,4.735,4.735,0,0,1,2.454,3.988v26.089a1.533,1.533,0,0,1-1.014,1.406,5.436,5.436,0,0,1-2.387.49,5.987,5.987,0,0,1-2.552-.49,1.534,1.534,0,0,1-1.046-1.406v-24a1.223,1.223,0,0,0-.848-1.112,4.805,4.805,0,0,0-2.029-.392,4.689,4.689,0,0,0-1.927.392c-.589.262-.928.567-1.014.915v24.193a1.538,1.538,0,0,1-1.079,1.406,5.868,5.868,0,0,1-2.452.49,5.636,5.636,0,0,1-2.42-.49,1.534,1.534,0,0,1-1.046-1.406V857.175a1.868,1.868,0,0,0-1.079-.915,4.7,4.7,0,0,0-1.929-.392,4.792,4.792,0,0,0-2.027.392,1.219,1.219,0,0,0-.85,1.112v24a1.531,1.531,0,0,1-1.014,1.406,5.763,5.763,0,0,1-2.517.49,5.593,5.593,0,0,1-2.454-.49,1.529,1.529,0,0,1-1.011-1.406V855.278a4.734,4.734,0,0,1,2.452-3.988A11.432,11.432,0,0,1,1073.825,849.655Z" transform="translate(-939.918 -838.016)" fill="#fff"/>
        <path id="Path_106047" data-name="Path 106047" d="M1090.854,851.551a1.533,1.533,0,0,1,1.015-1.408,5.447,5.447,0,0,1,2.386-.488,6.018,6.018,0,0,1,2.55.488,1.54,1.54,0,0,1,1.046,1.408v37.728a4.709,4.709,0,0,1-2.552,3.989,12.2,12.2,0,0,1-6.667,1.635,15.328,15.328,0,0,1-3.727-.425,9.631,9.631,0,0,1-2.91-1.21,6.161,6.161,0,0,1-1.866-1.8,3.988,3.988,0,0,1-.652-2.189v-3.6a1.512,1.512,0,0,1,1.046-1.438,5.986,5.986,0,0,1,2.419-.458,6.1,6.1,0,0,1,2.516.458,1.507,1.507,0,0,1,1.013,1.438v1.5q0,1.5,2.093,1.5,2.288,0,2.288-1.5Z" transform="translate(-928.046 -838.016)" fill="#fff"/>
        <path id="Path_106048" data-name="Path 106048" d="M1103.9,868.512a7.446,7.446,0,0,0,2.157-3.064,8.289,8.289,0,0,0,.392-2.085v-6q0-.717-1.2-1.106a7.754,7.754,0,0,0-2.43-.392,6.8,6.8,0,0,0-2.234.392c-.756.262-1.132.632-1.132,1.112v11.639c0,.61-.405,1.079-1.21,1.406a6.643,6.643,0,0,1-2.519.49,5.054,5.054,0,0,1-2.288-.49,1.531,1.531,0,0,1-.981-1.406V855.278a3.208,3.208,0,0,1,.915-2.19,8.667,8.667,0,0,1,2.387-1.8,13.429,13.429,0,0,1,3.367-1.21,17.293,17.293,0,0,1,7.62,0,14.1,14.1,0,0,1,3.366,1.21,8.474,8.474,0,0,1,2.419,1.8,3.215,3.215,0,0,1,.915,2.19v6.145a4.616,4.616,0,0,1,1.995.558,1.491,1.491,0,0,1,.882,1.341v17.85a1.534,1.534,0,0,1-1.053,1.406,5.388,5.388,0,0,1-2.3.488h-20.509a1.524,1.524,0,0,1-1.406-.923,4.6,4.6,0,0,1-.491-2.183,4.542,4.542,0,0,1,.491-2.212,1.533,1.533,0,0,1,1.406-.892h.59a4.007,4.007,0,0,0,2.158-.781,11.793,11.793,0,0,0,1.7-1.306Zm5.427,8.344v-5.362l-4.315,3.813c-.479.43-.807.741-.981.937s-.294.321-.36.387-.1.107-.1.129-.065.053-.194.1Z" transform="translate(-918.996 -838.016)" fill="#fff"/>
        <path id="Path_106049" data-name="Path 106049" d="M1113.078,862.732a1.536,1.536,0,0,1-1.048,1.406,5.968,5.968,0,0,1-2.55.49,5.415,5.415,0,0,1-2.385-.49,1.53,1.53,0,0,1-1.014-1.406v-7.454a3.608,3.608,0,0,1,.752-2.19,7.1,7.1,0,0,1,2.025-1.8,10.519,10.519,0,0,1,3.041-1.21,16.19,16.19,0,0,1,3.792-.425,16.628,16.628,0,0,1,3.827.425,10.483,10.483,0,0,1,3.073,1.21,7.068,7.068,0,0,1,2.025,1.8,3.606,3.606,0,0,1,.753,2.19V877.64a3.6,3.6,0,0,1-.753,2.19,7.066,7.066,0,0,1-2.025,1.8,10.327,10.327,0,0,1-3.073,1.21,16.527,16.527,0,0,1-3.827.427,16.091,16.091,0,0,1-3.792-.427,10.359,10.359,0,0,1-3.041-1.21,7.1,7.1,0,0,1-2.025-1.8,3.6,3.6,0,0,1-.752-2.19v-7.519a1.532,1.532,0,0,1,1.014-1.406,5.389,5.389,0,0,1,2.385-.49,5.939,5.939,0,0,1,2.55.49,1.538,1.538,0,0,1,1.048,1.406v5.427a1.214,1.214,0,0,0,.719,1.112,3.951,3.951,0,0,0,1.895.392,4.113,4.113,0,0,0,1.961-.392,1.216,1.216,0,0,0,.721-1.112V857.371a1.216,1.216,0,0,0-.721-1.112,4.115,4.115,0,0,0-1.961-.392,3.952,3.952,0,0,0-1.895.392,1.214,1.214,0,0,0-.719,1.112Z" transform="translate(-906.331 -838.016)" fill="#fff"/>
        <path id="Path_106050" data-name="Path 106050" d="M1125.193,849.655a10.447,10.447,0,0,1,3.5.588,6.625,6.625,0,0,1,3.1,2.681,5.867,5.867,0,0,1,1.7-1.667,9.47,9.47,0,0,1,2.06-.981,11.093,11.093,0,0,1,2.092-.49,14.625,14.625,0,0,1,1.862-.131c.044,0,.512.033,1.408.1a9.612,9.612,0,0,1,2.877.721,8.236,8.236,0,0,1,2.812,1.934,5.138,5.138,0,0,1,1.275,3.734V870.5a10.577,10.577,0,0,1-.687,3.734,6.292,6.292,0,0,1-1.931,2.819h1.571a6.823,6.823,0,0,0,2.615-.394,2.879,2.879,0,0,0,1.341-1.048,3.276,3.276,0,0,0,.49-1.573c.042-.61.066-1.288.066-2.031V851.555a1.54,1.54,0,0,1,1.046-1.409,6,6,0,0,1,2.549-.49,5.466,5.466,0,0,1,2.388.488,1.533,1.533,0,0,1,1.01,1.408V874.24a9.94,9.94,0,0,1-.783,4.185,7.139,7.139,0,0,1-2.221,2.779,9.378,9.378,0,0,1-3.465,1.569,19.21,19.21,0,0,1-4.512.49,33.378,33.378,0,0,1-5.065-.36,14.752,14.752,0,0,1-4.219-1.277,16.535,16.535,0,0,1-4.317,1.31,31.039,31.039,0,0,1-5.1.392,19.09,19.09,0,0,1-4.512-.492,9.33,9.33,0,0,1-3.466-1.568,7.179,7.179,0,0,1-2.225-2.779,9.992,9.992,0,0,1-.783-4.185V856.063a5.686,5.686,0,0,1,2.156-4.675A8.3,8.3,0,0,1,1125.193,849.655Zm2.942,7.519a1.224,1.224,0,0,0-.556-1.013,2.318,2.318,0,0,0-1.21-.294,1.9,1.9,0,0,0-1.177.394,1.307,1.307,0,0,0-.525,1.115v14.692q0,1.114.069,2.032a3.252,3.252,0,0,0,.489,1.575,2.884,2.884,0,0,0,1.341,1.048,6.827,6.827,0,0,0,2.616.394,3.533,3.533,0,0,1,.782-.033,2.359,2.359,0,0,0,.656-.033,8.1,8.1,0,0,1-1.8-2.942,10.5,10.5,0,0,1-.688-3.727Zm12.748,2.877a4.547,4.547,0,0,0-.785-3.106,2.761,2.761,0,0,0-2.092-.819,3.033,3.033,0,0,0-2.025.721q-.853.722-.852,3.137V869.99a7.463,7.463,0,0,0,.557,2.681,5.13,5.13,0,0,0,2.319,2.485,5.415,5.415,0,0,0,2.29-2.452,6.866,6.866,0,0,0,.587-2.648Z" transform="translate(-896.868 -838.016)" fill="#fff"/>
        <path id="Path_106051" data-name="Path 106051" d="M1148.093,850.963q0-1.5-2.287-1.5-2.092,0-2.094,1.5v1.5a1.508,1.508,0,0,1-1.01,1.438,6.115,6.115,0,0,1-2.519.458,5.989,5.989,0,0,1-2.419-.458,1.512,1.512,0,0,1-1.046-1.438v-3.6a3.99,3.99,0,0,1,.652-2.189,6.145,6.145,0,0,1,1.867-1.8,9.532,9.532,0,0,1,2.908-1.209,15.357,15.357,0,0,1,3.729-.425,12.213,12.213,0,0,1,6.669,1.634,4.71,4.71,0,0,1,2.546,3.987V886.6a1.532,1.532,0,0,1-1.042,1.406,6,6,0,0,1-2.55.49,5.43,5.43,0,0,1-2.389-.49,1.53,1.53,0,0,1-1.015-1.406Z" transform="translate(-881.324 -843.247)" fill="#fff"/>
      </g>
      <path id="Path_94551" data-name="Path 94551" d="M10363.621,2180.972s64.5-4.9,136.528-8.135,133.809,0,133.809,0" transform="translate(-10363.595 -2118.817)" fill="none" stroke="#fed637" stroke-linecap="round" stroke-width="3"/>
    </g>
  </g>
</svg>
