<svg id="graduated" xmlns="http://www.w3.org/2000/svg" width="37.272" height="47.093" viewBox="0 0 37.272 47.093">
  <path id="Path_94150" data-name="Path 94150" d="M85.618,30.766l-2.764-.812-6.013-3.928v-.9A8,8,0,0,0,80,19.506a1.838,1.838,0,0,0,1.542-1.811V15.22c0-.01,0-.019,0-.029V12.057a1.36,1.36,0,0,0,.569-1.11V8.078l4.15-.707a1.471,1.471,0,0,0,.2-2.852L72.468.069a1.464,1.464,0,0,0-.892,0l-13.99,4.45a1.476,1.476,0,0,0-.458,2.568v3.752h-.034a1.43,1.43,0,0,0-1.429,1.429V14.13l-.922,5.413a1.536,1.536,0,0,0,1.514,1.793h3.123a1.536,1.536,0,0,0,1.514-1.793L59.97,14.13V12.268a1.43,1.43,0,0,0-1.429-1.429h-.034V7.494l3.43.584v2.868a1.361,1.361,0,0,0,.566,1.108v5.64a1.838,1.838,0,0,0,1.542,1.811A8,8,0,0,0,67.2,25.125v.9l-6.012,3.927-2.762.811A7.015,7.015,0,0,0,53.387,37.5v2.056a.69.69,0,1,0,1.38,0V37.5a5.669,5.669,0,0,1,4.051-5.41l2.573-.755,10.28,6.109a.7.7,0,0,0,.7,0l10.281-6.109,2.573.755a5.67,5.67,0,0,1,4.05,5.41v6.663a1.552,1.552,0,0,1-1.55,1.55H84.689V42.74a.69.69,0,1,0-1.38,0v2.973H60.734V42.74a.69.69,0,1,0-1.38,0v2.973H56.317a1.552,1.552,0,0,1-1.55-1.55V42.782a.69.69,0,1,0-1.38,0v1.382a2.933,2.933,0,0,0,2.929,2.929H87.73a2.933,2.933,0,0,0,2.929-2.929V37.5a7.015,7.015,0,0,0-5.041-6.734ZM59.379,19.956H56.256a.155.155,0,0,1-.154-.182l.834-4.9H58.7l.834,4.9a.155.155,0,0,1-.154.182Zm-.788-7.689V13.5H57.044V12.268a.049.049,0,0,1,.049-.049h1.448A.049.049,0,0,1,58.59,12.268ZM69.556,34.323l.275.422-7.043-4.185,4.47-2.92A14.49,14.49,0,0,0,69.556,34.323Zm0-2.978a17.739,17.739,0,0,0,4.944,0,13.176,13.176,0,0,1-1.161,2.226l-1.311,2.015-1.311-2.015a13.175,13.175,0,0,1-1.161-2.226Zm4.939,2.978a14.489,14.489,0,0,0,2.3-6.683l4.47,2.92-7.043,4.185Zm4.035-22.01H80.16V14.53h-.812a.824.824,0,0,1-.824-.823V12.314ZM58,5.834l13.99-4.45a.091.091,0,0,1,.055,0l13.99,4.45a.077.077,0,0,1,.063.094c-.005.072-.046.079-.076.084L81.4,6.8l-1.737-.215A.69.69,0,1,0,79.5,7.953l1.233.153v2.828H63.317V8.106l7.138-.883a12.778,12.778,0,0,1,3.133,0l2.7.334a.69.69,0,1,0,.169-1.369l-2.7-.334a14.151,14.151,0,0,0-3.472,0L62.643,6.8l-4.627-.788c-.03-.005-.071-.012-.076-.084A.077.077,0,0,1,58,5.834Zm5.88,8.7V12.314h1.638v1.393a.824.824,0,0,1-.824.823h-.813ZM65.4,19.152a1.069,1.069,0,0,0-1.063-1,.456.456,0,0,1-.455-.455V15.91H64.7a2.206,2.206,0,0,0,2.2-2.2V12.314H77.146v1.393a2.206,2.206,0,0,0,2.2,2.2h.813v1.785a.456.456,0,0,1-.455.455,1.069,1.069,0,0,0-1.063,1,6.634,6.634,0,0,1-13.241,0Zm6.621,7.591a7.962,7.962,0,0,0,3.438-.779V26.4A13.147,13.147,0,0,1,75,29.866a16.289,16.289,0,0,1-5.945,0,13.146,13.146,0,0,1-.465-3.465c0-.015,0-.029,0-.043s0-.006,0-.009v-.387A7.963,7.963,0,0,0,72.023,26.743Z" transform="translate(-53.387 0)" fill="#31a5c4"/>
</svg>
