<svg xmlns="http://www.w3.org/2000/svg" width="627.005" height="14.803" viewBox="0 0 627.005 14.803">
  <g id="Group_37454" data-name="Group 37454" transform="translate(0 0)" opacity="0.874">
    <path id="Rectangle_14657" data-name="Rectangle 14657" d="M0,0H627.005a0,0,0,0,1,0,0V9.8a5,5,0,0,1-5,5H5a5,5,0,0,1-5-5V0A0,0,0,0,1,0,0Z" transform="translate(0 0)" fill="#08bd80"/>
    <path id="Rectangle_14658" data-name="Rectangle 14658" d="M0,0H627.005a0,0,0,0,1,0,0V2.4a5,5,0,0,1-5,5H5a5,5,0,0,1-5-5V0A0,0,0,0,1,0,0Z" transform="translate(0 7.401)" fill="#18484c" opacity="0.362"/>
  </g>
</svg>
